<svg id="Group_6883" data-name="Group 6883" xmlns="http://www.w3.org/2000/svg" width="100" height="100" viewBox="0 0 100 100">
  <g id="Group_6869" data-name="Group 6869">
    <path id="Path_19640" data-name="Path 19640" d="M0,100H0V0H53.312c-.012,0,.044.013.106.018a.39.39,0,0,1,.115.018.529.529,0,0,1,.155.076l15.4,15.4a.463.463,0,0,1,.069.12.591.591,0,0,1,.023.126l.011.145.019.073-.01,5.312h-.753V16.154h-15.4V.753H.753V99.247H24.71V100ZM53.8,15.4H67.914L53.8,1.285Z" fill="#5857f9"/>
  </g>
  <g id="Group_6870" data-name="Group 6870">
    <path id="Path_19641" data-name="Path 19641" d="M51.335,55.51h0V27.379H100V55.51Zm.752-.753h47.16V28.132H52.087Z" fill="#ff5d7d"/>
  </g>
  <g id="Group_6871" data-name="Group 6871">
    <path id="Path_19642" data-name="Path 19642" d="M30.8,100h0V61.6H100V100H30.8Zm.753-.753H99.247V62.662L67.312,82.831a.373.373,0,0,1-.39.006L31.554,62.627ZM67.1,82.072l31.22-19.717H32.593Z" fill="#ff5d7d"/>
  </g>
  <g id="Group_6872" data-name="Group 6872">
    <rect id="Rectangle_1869" data-name="Rectangle 1869" width="5.887" height="0.753" transform="translate(85.557 37.645)" fill="#ff5d7d"/>
  </g>
  <g id="Group_6873" data-name="Group 6873">
    <rect id="Rectangle_1870" data-name="Rectangle 1870" width="16.154" height="0.753" transform="translate(75.29 44.49)" fill="#ff5d7d"/>
  </g>
  <g id="Group_6874" data-name="Group 6874">
    <path id="Path_19643" data-name="Path 19643" d="M65.507,44.815a3.843,3.843,0,0,1-5.189-5.189,3.314,3.314,0,0,1,1.553-1.553,3.844,3.844,0,0,1,5.189,5.189A3.319,3.319,0,0,1,65.507,44.815Zm-.34-6.064A3.083,3.083,0,0,0,61,42.922a2.641,2.641,0,0,0,1.217,1.216,3.083,3.083,0,0,0,4.171-4.169A2.641,2.641,0,0,0,65.167,38.751Z" fill="#ff5d7d"/>
  </g>
  <g id="Group_6875" data-name="Group 6875">
    <rect id="Rectangle_1871" data-name="Rectangle 1871" width="7.598" height="0.753" transform="translate(10.267 10.267)" fill="#5857f9"/>
  </g>
  <g id="Group_6876" data-name="Group 6876">
    <rect id="Rectangle_1872" data-name="Rectangle 1872" width="29.843" height="0.753" transform="translate(10.267 18.823)" fill="#5857f9"/>
  </g>
  <g id="Group_6877" data-name="Group 6877">
    <rect id="Rectangle_1873" data-name="Rectangle 1873" width="17.865" height="0.753" transform="translate(10.267 30.801)" fill="#5857f9"/>
  </g>
  <g id="Group_6878" data-name="Group 6878">
    <rect id="Rectangle_1874" data-name="Rectangle 1874" width="29.843" height="0.753" transform="translate(10.267 41.068)" fill="#5857f9"/>
  </g>
  <g id="Group_6879" data-name="Group 6879">
    <rect id="Rectangle_1875" data-name="Rectangle 1875" width="29.843" height="0.753" transform="translate(10.267 51.334)" fill="#5857f9"/>
  </g>
  <g id="Group_6880" data-name="Group 6880">
    <rect id="Rectangle_1876" data-name="Rectangle 1876" width="12.731" height="0.753" transform="translate(10.267 61.601)" fill="#5857f9"/>
  </g>
  <g id="Group_6881" data-name="Group 6881">
    <rect id="Rectangle_1877" data-name="Rectangle 1877" width="12.731" height="0.753" transform="translate(10.267 71.868)" fill="#5857f9"/>
  </g>
  <g id="Group_6882" data-name="Group 6882">
    <rect id="Rectangle_1878" data-name="Rectangle 1878" width="12.731" height="0.753" transform="translate(10.267 82.135)" fill="#5857f9"/>
  </g>
</svg>
