<svg xmlns="http://www.w3.org/2000/svg" width="1089" height="661.064" viewBox="0 0 1089 661.064">
  <g id="Group_7001" data-name="Group 7001" transform="translate(-141 -1398)">
    <text id="Concept" transform="translate(192 1417)" fill="#5857f9" font-size="18" font-family="SegoeUI, Segoe UI" letter-spacing="0.171em"><tspan x="-47.963" y="0">CONCEPT</tspan></text>
    <text id="Week_1" data-name="Week 1" transform="translate(181 1497)" fill="#333" font-size="14" font-family="SegoeUI, Segoe UI" letter-spacing="0.1em"><tspan x="-26.872" y="0">WEEK 1</tspan></text>
    <text id="Week_2" data-name="Week 2" transform="translate(364 1497)" fill="#333" font-size="14" font-family="SegoeUI, Segoe UI" letter-spacing="0.1em"><tspan x="-26.872" y="0">WEEK 2</tspan></text>
    <text id="Week_3" data-name="Week 3" transform="translate(544 1497)" fill="#333" font-size="14" font-family="SegoeUI, Segoe UI" letter-spacing="0.1em"><tspan x="-26.872" y="0">WEEK 3</tspan></text>
    <text id="Week_4" data-name="Week 4" transform="translate(724 1497)" fill="#333" font-size="14" font-family="SegoeUI, Segoe UI" letter-spacing="0.1em"><tspan x="-26.872" y="0">WEEK 4</tspan></text>
    <text id="Week_5" data-name="Week 5" transform="translate(903 1497)" fill="#333" font-size="14" font-family="SegoeUI, Segoe UI" letter-spacing="0.1em"><tspan x="-26.872" y="0">WEEK 5</tspan></text>
    <text id="Week_6" data-name="Week 6" transform="translate(1084 1497)" fill="#333" font-size="14" font-family="SegoeUI, Segoe UI" letter-spacing="0.1em"><tspan x="-26.872" y="0">WEEK 6</tspan></text>
    <text id="FInal_product" data-name="FInal product" transform="translate(952 1417)" fill="#5857f9" font-size="18" font-family="SegoeUI, Segoe UI" letter-spacing="0.171em"><tspan x="-84.399" y="0">FINAL PRODUCT</tspan></text>
    <line id="Line_337" data-name="Line 337" y2="597.064" transform="translate(145.5 1462)" fill="none" stroke="#333" stroke-width="1" opacity="0.59"/>
    <line id="Line_337-2" data-name="Line 337" y2="597.064" transform="translate(325.5 1462)" fill="none" stroke="#dbdbdb" stroke-width="1"/>
    <line id="Line_337-3" data-name="Line 337" y2="597.064" transform="translate(505.5 1462)" fill="none" stroke="#dbdbdb" stroke-width="1"/>
    <line id="Line_337-4" data-name="Line 337" y2="597.064" transform="translate(685.5 1462)" fill="none" stroke="#333" stroke-width="1" opacity="0.59"/>
    <line id="Line_337-5" data-name="Line 337" y2="597.064" transform="translate(865.5 1462)" fill="none" stroke="#dbdbdb" stroke-width="1"/>
    <circle id="Ellipse_2773" data-name="Ellipse 2773" cx="4" cy="4" r="4" transform="translate(1222 1454)" fill="#878787"/>
    <circle id="Ellipse_2801" data-name="Ellipse 2801" cx="4" cy="4" r="4" transform="translate(681 1454)" fill="#878787"/>
    <circle id="Ellipse_2778" data-name="Ellipse 2778" cx="4" cy="4" r="4" transform="translate(141 1454)" fill="#878787"/>
    <line id="Line_337-6" data-name="Line 337" y2="597.064" transform="translate(1045.5 1462)" fill="none" stroke="#dbdbdb" stroke-width="1"/>
    <line id="Line_337-7" data-name="Line 337" y2="597.064" transform="translate(1225.5 1462)" fill="none" stroke="#333" stroke-width="1" opacity="0.59"/>
    <rect id="Rectangle_1901" data-name="Rectangle 1901" width="181" height="49" transform="translate(145 1556)" fill="#dfdfdf"/>
    <rect id="Rectangle_1903" data-name="Rectangle 1903" width="157" height="49" transform="translate(145 1625)" fill="#dfdfdf"/>
    <rect id="Rectangle_1904" data-name="Rectangle 1904" width="333" height="49" transform="translate(326 1694)" fill="#dfdfdf"/>
    <rect id="Rectangle_1905" data-name="Rectangle 1905" width="717" height="49" transform="translate(326 1763)" fill="#dfdfdf"/>
    <rect id="Rectangle_1907" data-name="Rectangle 1907" width="177" height="49" transform="translate(686 1832)" fill="#dfdfdf"/>
    <rect id="Rectangle_1912" data-name="Rectangle 1912" width="178" height="49" transform="translate(868 1832)" fill="#d2d2d2" opacity="0.19"/>
    <text id="Research" transform="translate(195 1585)" fill="#333" font-size="14" font-family="SegoeUI, Segoe UI"><tspan x="-27.463" y="0">Research</tspan></text>
    <text id="Startegy" transform="translate(193 1655)" fill="#333" font-size="14" font-family="SegoeUI, Segoe UI"><tspan x="-25.402" y="0">Startegy</tspan></text>
    <text id="Branding" transform="translate(374 1724)" fill="#333" font-size="14" font-family="SegoeUI, Segoe UI"><tspan x="-27.87" y="0">Branding</tspan></text>
    <text id="UX" transform="translate(355 1793)" fill="#333" font-size="14" font-family="SegoeUI, Segoe UI"><tspan x="-8.938" y="0">UX</tspan></text>
    <text id="UI" transform="translate(712 1862)" fill="#333" font-size="14" font-family="SegoeUI, Segoe UI"><tspan x="-6.672" y="0">UI</tspan></text>
    <circle id="Ellipse_2779" data-name="Ellipse 2779" cx="11" cy="11" r="11" transform="translate(294 1570)" fill="#fff"/>
    <circle id="Ellipse_2782" data-name="Ellipse 2782" cx="11" cy="11" r="11" transform="translate(270 1639)" fill="#fff"/>
    <circle id="Ellipse_2789" data-name="Ellipse 2789" cx="11" cy="11" r="11" transform="translate(1014 1846)" fill="#fff"/>
    <circle id="Ellipse_2780" data-name="Ellipse 2780" cx="4" cy="4" r="4" transform="translate(301 1577)" fill="#333"/>
    <circle id="Ellipse_2781" data-name="Ellipse 2781" cx="4" cy="4" r="4" transform="translate(277 1646)" fill="#333"/>
    <g id="Group_6954" data-name="Group 6954" transform="translate(0 -38)">
      <circle id="Ellipse_2783" data-name="Ellipse 2783" cx="11" cy="11" r="11" transform="translate(627 1746)" fill="#fff"/>
      <circle id="Ellipse_2784" data-name="Ellipse 2784" cx="4" cy="4" r="4" transform="translate(634 1753)" fill="#333"/>
    </g>
    <g id="Group_6958" data-name="Group 6958" transform="translate(0 -38)">
      <rect id="Rectangle_1909" data-name="Rectangle 1909" width="180" height="49" transform="translate(506 1939)" fill="#dfdfdf"/>
      <text id="Content" transform="translate(554 1969)" fill="#333" font-size="14" font-family="SegoeUI, Segoe UI"><tspan x="-24.763" y="0">Content</tspan></text>
      <circle id="Ellipse_2793" data-name="Ellipse 2793" cx="11" cy="11" r="11" transform="translate(654 1953)" fill="#fff"/>
      <circle id="Ellipse_2794" data-name="Ellipse 2794" cx="4" cy="4" r="4" transform="translate(661 1960)" fill="#333"/>
    </g>
    <g id="Group_6961" data-name="Group 6961" transform="translate(0 -38)">
      <rect id="Rectangle_1908" data-name="Rectangle 1908" width="361" height="49" transform="translate(505 2008)" fill="#dfdfdf"/>
      <text id="Development" transform="translate(568 2038)" fill="#333" font-size="14" font-family="SegoeUI, Segoe UI"><tspan x="-41.518" y="0">Development</tspan></text>
      <circle id="Ellipse_2796" data-name="Ellipse 2796" cx="11" cy="11" r="11" transform="translate(824 2022)" fill="#fff"/>
      <circle id="Ellipse_2795" data-name="Ellipse 2795" cx="4" cy="4" r="4" transform="translate(831 2029)" fill="#333"/>
    </g>
    <g id="Group_6956" data-name="Group 6956" transform="translate(326 1832)">
      <rect id="Rectangle_1906" data-name="Rectangle 1906" width="180" height="49" fill="#dfdfdf"/>
      <text id="UI-2" data-name="UI" transform="translate(29 30)" fill="#333" font-size="14" font-family="SegoeUI, Segoe UI"><tspan x="-6.672" y="0">UI</tspan></text>
      <circle id="Ellipse_2787" data-name="Ellipse 2787" cx="11" cy="11" r="11" transform="translate(148 14)" fill="#fff"/>
      <circle id="Ellipse_2788" data-name="Ellipse 2788" cx="4" cy="4" r="4" transform="translate(155 21)" fill="#333"/>
    </g>
    <circle id="Ellipse_2790" data-name="Ellipse 2790" cx="4" cy="4" r="4" transform="translate(1021 1853)" fill="#333"/>
    <rect id="Rectangle_1910" data-name="Rectangle 1910" width="180" height="49" transform="translate(1046 1970)" fill="#d2d2d2" opacity="0.3"/>
    <rect id="Rectangle_1913" data-name="Rectangle 1913" width="178" height="49" transform="translate(1048 1763)" fill="#d2d2d2" opacity="0.3"/>
    <text id="Gamification" transform="translate(928 1861)" fill="#333" font-size="14" font-family="SegoeUI, Segoe UI"><tspan x="-38.9" y="0">Gamification</tspan></text>
    <circle id="Ellipse_2798" data-name="Ellipse 2798" cx="11" cy="11" r="11" transform="translate(1194 1984)" fill="#fff"/>
    <circle id="Ellipse_2799" data-name="Ellipse 2799" cx="11" cy="11" r="11" transform="translate(1194 1777)" fill="#fff"/>
    <circle id="Ellipse_2797" data-name="Ellipse 2797" cx="4" cy="4" r="4" transform="translate(1201 1991)" fill="#333"/>
    <circle id="Ellipse_2800" data-name="Ellipse 2800" cx="4" cy="4" r="4" transform="translate(1201 1784)" fill="#333"/>
    <text id="Development-2" data-name="Development" transform="translate(1109 2000)" fill="#333" font-size="14" font-family="SegoeUI, Segoe UI"><tspan x="-41.518" y="0">Development</tspan></text>
    <text id="UX-2" data-name="UX" transform="translate(1075 1793)" fill="#333" font-size="14" font-family="SegoeUI, Segoe UI"><tspan x="-8.938" y="0">UX</tspan></text>
    <line id="Line_352" data-name="Line 352" y2="50" transform="translate(925.5 1939.5)" fill="none" stroke="#fff" stroke-width="2"/>
  </g>
</svg>
