<?xml version="1.0" standalone="no"?>
<!DOCTYPE svg PUBLIC "-//W3C//DTD SVG 20010904//EN"
 "http://www.w3.org/TR/2001/REC-SVG-20010904/DTD/svg10.dtd">
<svg version="1.0" xmlns="http://www.w3.org/2000/svg"
 width="700.000000pt" height="700.000000pt" viewBox="0 0 700.000000 700.000000"
 preserveAspectRatio="xMidYMid meet">
<metadata>
Created by potrace 1.14, written by Peter Selinger 2001-2017
</metadata>
<g transform="translate(0.000000,700.000000) scale(0.100000,-0.100000)"
fill="#000000" stroke="none">
<path d="M2358 6985 c-135 -33 -271 -120 -356 -228 -27 -34 -133 -181 -237
-327 -225 -316 -258 -357 -338 -414 -34 -24 -226 -125 -427 -224 -221 -109
-383 -195 -410 -218 -146 -123 -234 -291 -246 -469 -4 -47 5 -230 21 -445 29
-394 29 -500 -4 -596 -11 -32 -89 -217 -174 -409 -85 -193 -162 -383 -172
-422 -27 -111 -17 -272 22 -379 17 -45 47 -106 66 -137 20 -30 131 -155 248
-277 331 -346 374 -394 413 -470 27 -50 69 -183 151 -470 81 -285 124 -420
150 -469 82 -157 239 -282 410 -327 27 -8 221 -32 430 -54 394 -41 469 -54
557 -94 29 -13 193 -119 363 -236 171 -117 337 -227 370 -246 180 -99 429 -99
610 0 33 18 200 129 370 246 171 117 333 223 362 236 89 40 158 52 518 89 425
43 485 54 595 108 67 32 102 58 165 122 121 121 137 157 270 625 82 287 124
420 151 470 39 76 80 121 416 473 230 241 269 294 316 426 24 68 27 90 27 211
0 98 -5 149 -17 187 -9 28 -89 216 -178 417 -100 227 -166 390 -175 433 -20
92 -19 154 10 543 14 184 25 363 25 398 0 90 -26 194 -72 292 -33 69 -57 101
-128 172 l-87 87 -369 182 c-203 100 -397 201 -431 225 -81 58 -112 96 -363
449 -118 165 -239 325 -271 355 -119 115 -251 171 -425 178 l-111 4 -404 -102
c-534 -136 -465 -136 -993 -1 -375 95 -404 101 -495 100 -53 0 -122 -7 -153
-14z m546 -486 c198 -50 393 -97 431 -104 67 -11 68 -12 35 -20 -64 -14 -142
-60 -386 -228 -133 -91 -259 -174 -281 -186 -67 -34 -155 -49 -466 -81 -231
-24 -313 -36 -362 -54 l-65 -23 39 46 c21 25 130 174 242 331 239 335 234 328
279 362 44 32 84 46 134 47 21 1 201 -40 400 -90z m1661 78 c78 -31 99 -54
308 -347 115 -162 234 -325 263 -361 l52 -66 -64 23 c-50 18 -137 32 -387 58
-177 20 -343 42 -369 50 -64 19 -98 40 -346 210 -277 191 -286 196 -361 221
l-65 22 60 7 c32 4 223 49 424 101 364 93 428 104 485 82z m-829 -734 c300
-206 355 -240 436 -273 121 -48 175 -58 482 -90 160 -16 308 -35 329 -40 20
-6 44 -22 53 -36 20 -30 165 -536 167 -582 0 -18 -6 -39 -14 -47 -15 -16 -127
-68 -849 -402 -245 -113 -459 -216 -476 -229 -41 -32 -84 -112 -91 -173 -5
-44 11 -107 127 -512 122 -424 132 -465 119 -487 -16 -27 -489 -282 -524 -282
-11 0 -130 58 -265 129 -184 97 -248 135 -258 155 -12 24 -1 68 117 480 72
250 131 472 131 493 0 62 -28 129 -74 176 -35 35 -95 66 -376 196 -917 421
-958 441 -970 470 -9 24 0 66 69 310 44 155 87 293 95 306 8 13 30 28 48 34
18 5 150 22 293 36 489 49 493 50 895 324 223 153 270 181 301 181 30 0 69
-23 235 -137z m-2131 -245 c-22 -42 -57 -143 -100 -298 -106 -376 -122 -423
-162 -483 -21 -31 -135 -157 -253 -281 -126 -133 -230 -252 -252 -288 l-38
-62 0 70 c0 38 -11 220 -25 404 -14 184 -25 360 -25 390 0 69 33 143 84 188
20 18 195 110 389 206 194 96 366 183 382 194 17 11 31 21 32 21 2 1 -13 -27
-32 -61z m4181 -159 c192 -94 358 -182 379 -201 50 -43 85 -119 85 -183 0 -27
-11 -205 -25 -395 -14 -190 -25 -374 -25 -410 l0 -65 -29 53 c-31 56 -70 100
-336 379 -133 140 -177 193 -202 244 -17 35 -68 197 -113 359 -60 213 -93 315
-121 367 l-38 73 42 -27 c23 -15 196 -102 383 -194z m-163 -1191 c183 -189
207 -218 207 -262 0 -16 -56 -157 -125 -314 -191 -434 -196 -459 -165 -882 24
-345 25 -379 4 -408 -10 -14 -133 -81 -307 -169 -161 -79 -319 -164 -352 -188
-97 -69 -170 -155 -353 -412 -95 -132 -180 -247 -188 -254 -37 -30 -68 -15
-292 144 -122 86 -246 169 -276 184 -31 15 -59 37 -65 50 -7 15 -11 121 -11
293 0 265 0 269 23 294 12 14 161 98 331 187 170 89 320 172 335 185 15 12 40
46 55 74 50 91 46 116 -98 610 -73 252 -124 444 -121 457 3 12 15 30 28 39 36
26 1160 544 1182 544 13 0 79 -61 188 -172z m-3648 -14 c209 -97 465 -215 570
-263 130 -60 195 -96 209 -115 l20 -26 -132 -463 c-73 -254 -132 -471 -132
-483 0 -11 7 -43 15 -71 28 -94 58 -116 420 -307 232 -122 334 -181 342 -197
9 -17 13 -98 13 -289 0 -302 2 -293 -83 -336 -28 -15 -143 -92 -255 -171 -238
-170 -250 -177 -285 -164 -17 7 -84 92 -199 253 -181 254 -272 360 -363 425
-31 21 -189 106 -353 188 -228 115 -300 156 -312 177 -13 23 -12 65 8 365 32
479 34 470 -164 919 -68 154 -124 293 -124 308 0 15 5 37 12 49 6 12 88 102
181 200 149 155 174 177 202 177 19 0 175 -67 410 -176z m-1205 -323 c0 -47
22 -106 152 -401 69 -157 131 -306 137 -332 15 -65 14 -136 -10 -455 -18 -251
-19 -362 -2 -411 3 -9 -25 17 -63 58 -38 41 -174 184 -302 318 -266 277 -277
293 -270 406 4 66 16 96 160 421 86 193 162 370 168 393 14 45 30 47 30 3z
m5675 -436 c124 -279 139 -317 143 -378 7 -116 -1 -128 -262 -401 -127 -133
-264 -277 -305 -321 -40 -44 -71 -71 -68 -60 18 65 17 141 -4 437 -19 276 -21
341 -11 399 9 50 48 151 142 363 71 161 134 313 139 337 5 24 13 57 16 74 6
27 9 23 39 -55 18 -47 95 -224 171 -395z m-4890 -1615 c277 -136 354 -182 412
-250 16 -19 103 -138 193 -265 89 -126 190 -256 224 -289 34 -33 52 -56 41
-53 -42 12 -92 18 -462 57 -211 22 -398 46 -416 54 -45 18 -98 66 -120 108 -9
18 -68 211 -130 428 -63 217 -117 404 -122 414 -5 12 11 3 46 -24 32 -26 166
-98 334 -180z m4266 192 c-6 -12 -61 -198 -122 -414 -70 -249 -119 -406 -134
-430 -27 -41 -76 -81 -119 -98 -16 -6 -198 -28 -405 -50 -369 -39 -426 -46
-466 -56 -12 -4 1 13 31 40 30 26 130 154 238 304 112 157 208 280 242 311 46
43 111 78 348 195 166 82 312 160 341 183 54 43 63 46 46 15z m-2208 -744 c12
-6 130 -88 262 -182 256 -182 301 -205 400 -206 l60 0 -57 -35 c-32 -19 -193
-127 -357 -240 -165 -113 -319 -212 -342 -220 -53 -19 -105 -19 -158 0 -23 8
-176 107 -340 219 -165 113 -325 221 -357 241 l-59 35 62 0 c37 0 83 8 112 19
27 10 157 95 288 188 131 93 247 175 258 181 26 15 200 15 228 0z"/>
</g>
</svg>
