<svg xmlns="http://www.w3.org/2000/svg" width="99.6" height="99.6" viewBox="0 0 99.6 99.6">
  <g id="Group_6863" data-name="Group 6863" transform="translate(-0.2 -0.2)">
    <g id="Group_6848" data-name="Group 6848">
      <path id="Path_19623" data-name="Path 19623" d="M10.241,99.8A10.052,10.052,0,0,1,.2,89.759V.6A.4.4,0,0,1,.6.2H80.12a.4.4,0,0,1,.4.4V89.759a9.236,9.236,0,1,0,18.473,0V76.105H89.458a.4.4,0,0,1,0-.8H99.4a.4.4,0,0,1,.4.4V89.759A10.052,10.052,0,0,1,89.759,99.8ZM1,89.759A9.247,9.247,0,0,0,10.241,99H84.5l-2.311-2.66a10.024,10.024,0,0,1-2.465-6.577V1H1Z" fill="#5857f9"/>
    </g>
    <g id="Group_6849" data-name="Group 6849">
      <path id="Path_19624" data-name="Path 19624" d="M41.768,15.462a.4.4,0,0,1-.286-.686.426.426,0,0,1,.286-.118.4.4,0,0,1,.284.686A.416.416,0,0,1,41.768,15.462Z"/>
    </g>
    <g id="Group_6850" data-name="Group 6850">
      <path id="Path_19625" data-name="Path 19625" d="M14.709,33.133a.4.4,0,0,1-.4-.4V15.06a.4.4,0,0,1,.4-.4H32.882a.4.4,0,1,1,0,.8H15.111V32.329h50.5V15.462H49.5a.4.4,0,1,1,0-.8H66.015a.4.4,0,0,1,.4.4V32.731a.4.4,0,0,1-.4.4Z" fill="#ff5d7d"/>
    </g>
    <g id="Group_6851" data-name="Group 6851">
      <path id="Path_19626" data-name="Path 19626" d="M14.709,50.815a.4.4,0,0,1-.4-.4V40.775a.4.4,0,0,1,.4-.4h9.639a.4.4,0,0,1,.4.4v9.638a.4.4,0,0,1-.4.4Zm.4-.8h8.834V41.177H15.111Z" fill="#ff5d7d"/>
    </g>
    <g id="Group_6852" data-name="Group 6852">
      <path id="Path_19627" data-name="Path 19627" d="M35.492,50.815a.4.4,0,0,1-.4-.4V40.775a.4.4,0,0,1,.4-.4h9.639a.4.4,0,0,1,.4.4v9.638a.4.4,0,0,1-.4.4Zm.4-.8h8.834V41.177H35.9Z" fill="#ff5d7d"/>
    </g>
    <g id="Group_6853" data-name="Group 6853">
      <path id="Path_19628" data-name="Path 19628" d="M56.376,50.815a.4.4,0,0,1-.4-.4V40.775a.4.4,0,0,1,.4-.4h9.639a.4.4,0,0,1,.4.4v9.638a.4.4,0,0,1-.4.4Zm.4-.8h8.834V41.177H56.778Z" fill="#ff5d7d"/>
    </g>
    <g id="Group_6854" data-name="Group 6854">
      <path id="Path_19629" data-name="Path 19629" d="M14.709,59.055a.4.4,0,0,1,0-.805H24.3a.4.4,0,0,1,0,.805Z" fill="#ff5d7d"/>
    </g>
    <g id="Group_6855" data-name="Group 6855">
      <path id="Path_19630" data-name="Path 19630" d="M35.567,59.055a.4.4,0,0,1,0-.805h9.589a.4.4,0,0,1,0,.805Z" fill="#ff5d7d"/>
    </g>
    <g id="Group_6856" data-name="Group 6856">
      <path id="Path_19631" data-name="Path 19631" d="M56.4,59.055a.4.4,0,0,1,0-.805h9.588a.4.4,0,1,1,0,.805Z" fill="#ff5d7d"/>
    </g>
    <g id="Group_6857" data-name="Group 6857">
      <path id="Path_19632" data-name="Path 19632" d="M14.709,67.087a.4.4,0,0,1,0-.805H24.3a.4.4,0,0,1,0,.805Z" fill="#ff5d7d"/>
    </g>
    <g id="Group_6858" data-name="Group 6858">
      <path id="Path_19633" data-name="Path 19633" d="M14.709,88.957a.4.4,0,0,1-.4-.4V76.323a.4.4,0,0,1,.4-.4H66.015a.4.4,0,0,1,.4.4V88.554a.4.4,0,0,1-.4.4Zm.4-.805h50.5V76.725h-50.5Z" fill="#ff5d7d"/>
    </g>
    <g id="Group_6859" data-name="Group 6859">
      <path id="Path_19634" data-name="Path 19634" d="M35.567,67.087a.4.4,0,0,1,0-.805h9.589a.4.4,0,0,1,0,.805Z" fill="#ff5d7d"/>
    </g>
    <g id="Group_6860" data-name="Group 6860">
      <path id="Path_19635" data-name="Path 19635" d="M56.4,67.087a.4.4,0,0,1,0-.805h9.588a.4.4,0,1,1,0,.805Z" fill="#ff5d7d"/>
    </g>
    <g id="Group_6861" data-name="Group 6861">
      <path id="Path_19636" data-name="Path 19636" d="M88.152,27.611a.414.414,0,0,1-.281-.116.4.4,0,1,1,.281.116Z"/>
    </g>
    <g id="Group_6862" data-name="Group 6862">
      <path id="Path_19637" data-name="Path 19637" d="M93.775,65.463a.4.4,0,0,1-.352-.209L87.8,55.013a.4.4,0,0,1-.051-.194V34.739a.4.4,0,0,1,.805,0V54.417H99V12.049H88.555v7.764a.4.4,0,0,1-.805,0V4.652A4.457,4.457,0,0,1,92.2.2h3.146A4.457,4.457,0,0,1,99.8,4.652V54.819a.394.394,0,0,1-.049.192L94.127,65.254A.4.4,0,0,1,93.775,65.463Zm0-1.239,4.943-9H88.833ZM92.2,1a3.652,3.652,0,0,0-3.647,3.648v6.592H99V4.652A3.652,3.652,0,0,0,95.349,1Z" fill="#5857f9"/>
    </g>
  </g>
</svg>
