<svg xmlns="http://www.w3.org/2000/svg" width="98.602" height="98.596" viewBox="0 0 98.602 98.596">
  <g id="Group_6825" data-name="Group 6825" transform="translate(-0.699 -0.702)">
    <g id="Group_6814" data-name="Group 6814">
      <path id="Path_19606" data-name="Path 19606" d="M94.856,99.3A4.422,4.422,0,0,1,91.713,98L80.319,86.6,5.357,86.546A4.663,4.663,0,0,1,.7,81.889V5.358A4.663,4.663,0,0,1,5.357.7H94.643A4.663,4.663,0,0,1,99.3,5.358V81.889a4.644,4.644,0,0,1-3.215,4.38l-2.664.869L98,91.715A4.441,4.441,0,0,1,94.856,99.3ZM66.912,72.046,92.3,97.434a3.63,3.63,0,0,0,5.137-5.13L72.045,66.913Zm-65.4,9.843a3.849,3.849,0,0,0,3.845,3.846H79.481L66.057,72.447,60.3,60.9a.407.407,0,0,1,0-.357.4.4,0,0,1,.364-.224.422.422,0,0,1,.183.043L72.254,66.06a.851.851,0,0,1,.187.1L91.959,85.677l2.683.058a3.849,3.849,0,0,0,3.846-3.846V18.519H1.512ZM66.536,71.358l4.906-4.907-9.813-4.9ZM5.357,1.512A3.849,3.849,0,0,0,1.512,5.358v12.35H98.488V5.358a3.849,3.849,0,0,0-3.845-3.846Z" fill="#5857f9"/>
    </g>
    <g id="Group_6815" data-name="Group 6815">
      <rect id="Rectangle_1845" data-name="Rectangle 1845" width="64.589" height="0.811" transform="translate(9.202 9.205)" fill="#5857f9"/>
    </g>
    <g id="Group_6816" data-name="Group 6816">
      <rect id="Rectangle_1846" data-name="Rectangle 1846" width="0.813" height="0.811" transform="translate(89.985 9.205)" fill="#5857f9"/>
    </g>
    <g id="Group_6817" data-name="Group 6817">
      <rect id="Rectangle_1847" data-name="Rectangle 1847" width="0.813" height="0.811" transform="translate(81.481 9.205)" fill="#5857f9"/>
    </g>
    <g id="Group_6818" data-name="Group 6818">
      <path id="Path_19607" data-name="Path 19607" d="M28.714,78.072a4.658,4.658,0,0,1-1.531-9.057l1.152-.4V35.642l-1.152-.4a4.658,4.658,0,1,1,5.929-5.93l.4,1.154H66.479l.407-1.147a4.623,4.623,0,1,1,5.912,5.93l-1.133.412V56.784h-.812V35.65l-1.143-.407a4.644,4.644,0,0,1-2.827-2.826l-.407-1.144H50.406V52.127a.405.405,0,0,1-.406.405H29.147V68.605l1.145.406a4.644,4.644,0,0,1,2.825,2.825l.407,1.144H58.91v.811h-25.4l-.4,1.155a4.661,4.661,0,0,1-4.4,3.126Zm.028-8.533a3.847,3.847,0,1,0,3.845,3.846A3.85,3.85,0,0,0,28.742,69.539Zm4.375-37.122a4.644,4.644,0,0,1-2.827,2.826l-1.143.407V51.722H49.594V31.273H33.524Zm38.141-5.4A3.847,3.847,0,1,0,75.1,30.869,3.851,3.851,0,0,0,71.258,27.022Zm-42.516,0a3.847,3.847,0,1,0,3.845,3.847A3.851,3.851,0,0,0,28.742,27.022Z" fill="#ff5d7d"/>
    </g>
    <g id="Group_6819" data-name="Group 6819">
      <rect id="Rectangle_1848" data-name="Rectangle 1848" width="7.19" height="0.811" transform="translate(83.607 34.715)"/>
    </g>
    <g id="Group_6820" data-name="Group 6820">
      <rect id="Rectangle_1849" data-name="Rectangle 1849" width="7.19" height="0.811" transform="translate(83.607 26.211)"/>
    </g>
    <g id="Group_6821" data-name="Group 6821">
      <rect id="Rectangle_1850" data-name="Rectangle 1850" width="7.19" height="0.811" transform="translate(9.202 34.715)"/>
    </g>
    <g id="Group_6822" data-name="Group 6822">
      <rect id="Rectangle_1851" data-name="Rectangle 1851" width="7.19" height="0.811" transform="translate(9.202 26.211)"/>
    </g>
    <g id="Group_6823" data-name="Group 6823">
      <rect id="Rectangle_1852" data-name="Rectangle 1852" width="7.19" height="0.811" transform="translate(9.202 77.232)"/>
    </g>
    <g id="Group_6824" data-name="Group 6824">
      <rect id="Rectangle_1853" data-name="Rectangle 1853" width="7.19" height="0.81" transform="translate(9.202 68.729)"/>
    </g>
  </g>
</svg>
