<svg xmlns="http://www.w3.org/2000/svg" xmlns:xlink="http://www.w3.org/1999/xlink" width="1146.5" height="663.5" viewBox="0 0 1146.5 663.5">
  <defs>
    <filter id="Rectangle_1916" x="259" y="0" width="619" height="637" filterUnits="userSpaceOnUse">
      <feOffset dy="16" input="SourceAlpha"/>
      <feGaussianBlur stdDeviation="49.5" result="blur"/>
      <feFlood flood-opacity="0.161"/>
      <feComposite operator="in" in2="blur"/>
      <feComposite in="SourceGraphic"/>
    </filter>
    <filter id="Rectangle_21" x="844.5" y="68.5" width="302" height="441" filterUnits="userSpaceOnUse">
      <feOffset dy="7" input="SourceAlpha"/>
      <feGaussianBlur stdDeviation="7" result="blur-2"/>
      <feFlood flood-color="#9e9e9e" flood-opacity="0.22"/>
      <feComposite operator="in" in2="blur-2"/>
      <feComposite in="SourceGraphic"/>
    </filter>
    <filter id="Rectangle_22" x="759.5" y="312.5" width="302" height="313" filterUnits="userSpaceOnUse">
      <feOffset dy="7" input="SourceAlpha"/>
      <feGaussianBlur stdDeviation="7" result="blur-3"/>
      <feFlood flood-color="#9e9e9e" flood-opacity="0.22"/>
      <feComposite operator="in" in2="blur-3"/>
      <feComposite in="SourceGraphic"/>
    </filter>
    <filter id="Rectangle_15" x="61.5" y="362.5" width="286" height="301" filterUnits="userSpaceOnUse">
      <feOffset dy="7" input="SourceAlpha"/>
      <feGaussianBlur stdDeviation="20" result="blur-4"/>
      <feFlood flood-color="#9e9e9e" flood-opacity="0.161"/>
      <feComposite operator="in" in2="blur-4"/>
      <feComposite in="SourceGraphic"/>
    </filter>
    <filter id="Path_19410" x="0" y="187" width="224.999" height="230.33" filterUnits="userSpaceOnUse">
      <feOffset dy="7" input="SourceAlpha"/>
      <feGaussianBlur stdDeviation="9.5" result="blur-5"/>
      <feFlood flood-color="#9e9e9e" flood-opacity="0.322"/>
      <feComposite operator="in" in2="blur-5"/>
      <feComposite in="SourceGraphic"/>
    </filter>
    <filter id="Path_19658" x="196" y="61" width="109" height="134" filterUnits="userSpaceOnUse">
      <feOffset dy="7" input="SourceAlpha"/>
      <feGaussianBlur stdDeviation="5.5" result="blur-6"/>
      <feFlood flood-color="#9e9e9e" flood-opacity="0.471"/>
      <feComposite operator="in" in2="blur-6"/>
      <feComposite in="SourceGraphic"/>
    </filter>
    <filter id="Book_Now" x="597.206" y="415.489" width="105" height="50" filterUnits="userSpaceOnUse">
      <feOffset dy="3" input="SourceAlpha"/>
      <feGaussianBlur stdDeviation="5" result="blur-7"/>
      <feFlood flood-opacity="0.11"/>
      <feComposite operator="in" in2="blur-7"/>
      <feComposite in="SourceGraphic"/>
    </filter>
    <filter id="Path_3473" x="391.794" y="136.662" width="157.807" height="43.885" filterUnits="userSpaceOnUse">
      <feOffset dy="3" input="SourceAlpha"/>
      <feGaussianBlur stdDeviation="3" result="blur-8"/>
      <feFlood flood-color="#d9233c" flood-opacity="0.251"/>
      <feComposite operator="in" in2="blur-8"/>
      <feComposite in="SourceGraphic"/>
    </filter>
    <filter id="Best_for_Honeymoon" x="409.089" y="142.673" width="122" height="31" filterUnits="userSpaceOnUse">
      <feOffset dy="3" input="SourceAlpha"/>
      <feGaussianBlur stdDeviation="3" result="blur-9"/>
      <feFlood flood-color="#d9233c" flood-opacity="0.251"/>
      <feComposite operator="in" in2="blur-9"/>
      <feComposite in="SourceGraphic"/>
    </filter>
  </defs>
  <g id="Group_6900" data-name="Group 6900" transform="translate(-106.5 -5192.5)">
    <g transform="matrix(1, 0, 0, 1, 106.5, 5192.5)" filter="url(#Rectangle_1916)">
      <rect id="Rectangle_1916-2" data-name="Rectangle 1916" width="322" height="340" rx="7" transform="translate(407.5 132.5)" fill="#fff"/>
    </g>
    <g id="Group_296" data-name="Group 296" transform="translate(5 1048)">
      <g transform="matrix(1, 0, 0, 1, 101.5, 4144.5)" filter="url(#Rectangle_21)">
        <rect id="Rectangle_21-2" data-name="Rectangle 21" width="260" height="399" transform="translate(865.5 82.5)" fill="#333"/>
      </g>
      <text id="_Botton_icon_plus_iconOnly_true_radius_80_..._onClick_New_Button_" data-name="&lt;Botton
icon=&quot;plus&quot;
iconOnly={true}
radius={80}
{ ... { onClick } }&gt;
New
&lt;/Button&gt;" transform="translate(995 4268)" fill="#fff" font-size="12" font-family="Poppins-Light, Poppins" font-weight="300"><tspan x="0" y="0">&lt;</tspan><tspan y="0" fill="#adb900">Botton</tspan><tspan x="0" y="28">icon=&quot;</tspan><tspan y="28" fill="#6db437">plus</tspan><tspan y="28">&quot;</tspan><tspan x="0" y="56">iconOnly={true}</tspan><tspan x="0" y="84">radius={80}</tspan><tspan x="0" y="112">{ ... { onClick } }&gt;</tspan><tspan x="0" y="140">New</tspan><tspan x="0" y="168">&lt;/</tspan><tspan y="168" fill="#adb900">Button</tspan><tspan y="168">&gt;</tspan></text>
    </g>
    <path id="Path_19412" data-name="Path 19412" d="M-3516.682-4650.488h-98.8v152.657H-3662" transform="translate(4021.795 10184.773)" fill="none" stroke="#666" stroke-width="1" stroke-dasharray="3 4" opacity="0.64"/>
    <path id="Path_19413" data-name="Path 19413" d="M-3925.127-4711.779l165.365,3.45v113.158h65.321" transform="translate(4223.441 10195.597)" fill="none" stroke="#666" stroke-width="1" stroke-dasharray="3 4" opacity="0.64"/>
    <path id="Path_19414" data-name="Path 19414" d="M-3190.214-4701.218h97.894v-83.235h46.818" transform="translate(4008.502 10144.582)" fill="none" stroke="#666" stroke-width="1" stroke-dasharray="3 4" opacity="0.64"/>
    <g id="Group_297" data-name="Group 297" transform="translate(12 1050)">
      <g transform="matrix(1, 0, 0, 1, 94.5, 4142.5)" filter="url(#Rectangle_22)">
        <rect id="Rectangle_22-2" data-name="Rectangle 22" width="260" height="271" transform="translate(780.5 326.5)" fill="#ec1f27"/>
      </g>
      <text id="_Button_Style_font-weight:_100_font-size:_16px_line-height:_27px_letter-spacing:_normal_font-family:_Gilroy_border-radius:_0px_" data-name="// Button Style
$font-weight:  100;
$font-size:  16px;
$line-height: 27px;
$letter-spacing: normal;
$font-family: 
Gilroy;
$border-radius:  0px;" transform="translate(912 4519)" fill="#fff" font-size="12" font-family="SegoeUI-Light, Segoe UI" font-weight="300"><tspan x="0" y="0">// Button Style</tspan><tspan x="0" y="26" xml:space="preserve">$font-weight:  100;</tspan><tspan x="0" y="52" xml:space="preserve">$font-size:  16px;</tspan><tspan x="0" y="78">$line-height: 27px;</tspan><tspan x="0" y="104">$letter-spacing: normal;</tspan><tspan x="0" y="130">$font-family: </tspan><tspan x="0" y="156">Gilroy;</tspan><tspan x="0" y="182" xml:space="preserve">$border-radius:  0px;</tspan></text>
    </g>
    <g id="Group_301" data-name="Group 301" transform="translate(-21 1048)">
      <g transform="matrix(1, 0, 0, 1, 127.5, 4144.5)" filter="url(#Rectangle_15)">
        <rect id="Rectangle_15-2" data-name="Rectangle 15" width="166" height="181" transform="translate(121.5 415.5)" fill="#fff"/>
      </g>
      <text id="Aa" transform="translate(331 4656)" fill="#272727" font-size="46" font-family="Montserrat-SemiBold, Montserrat" font-weight="600"><tspan x="-31.188" y="0">Aa</tspan></text>
      <path id="Path_19417" data-name="Path 19417" d="M0,0H167V29H0Z" transform="translate(249 4713)" fill="#ececec"/>
      <text id="Font_Style" data-name="Font Style" transform="translate(333 4731)" fill="#666" font-size="12" font-family="SegoeUI-Light, Segoe UI" font-weight="300"><tspan x="-24.533" y="0">Font Style</tspan></text>
      <text id="Montserrat" transform="translate(333 4682)" fill="#666" font-size="12" font-family="SegoeUI-Light, Segoe UI" font-weight="300"><tspan x="-27.422" y="0">Montserrat</tspan></text>
    </g>
    <g transform="matrix(1, 0, 0, 1, 106.5, 5192.5)" filter="url(#Path_19410)">
      <path id="Path_19410-2" data-name="Path 19410" d="M0,0H168V173.33H0Z" transform="translate(28.5 208.5)" fill="#f5f6fc"/>
    </g>
    <g id="Group_299" data-name="Group 299" transform="translate(-4 1048)">
      <g id="Rectangle_13" data-name="Rectangle 13" transform="translate(177 4419)" fill="#ec1f26" stroke="rgba(236,31,38,0.99)" stroke-width="1">
        <rect width="92" height="30" rx="15" stroke="none"/>
        <rect x="0.5" y="0.5" width="91" height="29" rx="14.5" fill="none"/>
      </g>
    </g>
    <g id="Group_300" data-name="Group 300" transform="translate(-4 1048)">
      <rect id="Rectangle_17" data-name="Rectangle 17" width="167" height="29" transform="translate(139 4497)" fill="#fff"/>
      <text id="Button_Style" data-name="Button Style" transform="translate(223 4515)" fill="#666" font-size="12" font-family="SegoeUI-Light, Segoe UI" font-weight="300"><tspan x="-30" y="0">Button Style</tspan></text>
    </g>
    <g id="Group_298" data-name="Group 298" transform="translate(-4 1075)">
      <g transform="matrix(1, 0, 0, 1, 110.5, 4117.5)" filter="url(#Path_19658)">
        <path id="Path_19658-2" data-name="Path 19658" d="M0,0H76V101H0Z" transform="translate(212.5 70.5)" fill="#d9233c"/>
      </g>
      <rect id="Rectangle_24" data-name="Rectangle 24" width="76" height="29" transform="translate(323 4260)" fill="#fff"/>
      <text id="_D9233C" data-name="#D9233C" transform="translate(360 4279)" fill="#666" font-size="11" font-family="Poppins-Light, Poppins" font-weight="300"><tspan x="-25.608" y="0">#D9233C</tspan></text>
    </g>
    <path id="Path_19522" data-name="Path 19522" d="M-16728,2571.228h91.619v184.161h20.666" transform="translate(17123 2728)" fill="none" stroke="#666" stroke-width="1" stroke-dasharray="3 4" opacity="0.64"/>
    <path id="Path_19523" data-name="Path 19523" d="M-16580,2724h273.323" transform="translate(17123 2728)" fill="none" stroke="#666" stroke-width="1" stroke-dasharray="1 2" opacity="0.64"/>
    <text id="View" transform="translate(219 5486)" fill="#fff" font-size="12" font-family="SegoeUI, Segoe UI"><tspan x="-13.963" y="0">VIEW</tspan></text>
    <g id="Group_3864" data-name="Group 3864" transform="translate(507.294 5324.582)">
      <rect id="Rectangle_67" data-name="Rectangle 67" width="321.411" height="337" rx="10" transform="translate(7.582 3.418)" fill="#fff"/>
      <path id="Rectangle_Copy_2" data-name="Rectangle Copy 2" d="M10,0H311.411a10,10,0,0,1,10,10V175a0,0,0,0,1,0,0H0a0,0,0,0,1,0,0V10A10,10,0,0,1,10,0Z" transform="translate(7.046)" fill="#f5f5f5"/>
      <text id="Uniquely_Singapore" data-name="Uniquely Singapore" transform="translate(26.807 206.417)" fill="#1d3554" font-size="18" font-family="Montserrat-Bold, Montserrat" font-weight="700"><tspan x="0" y="0">Uniquely Singapore</tspan></text>
      <text id="_25_289_" data-name="₹ 25,289 " transform="translate(27.807 307.417)" fill="#1d3554" stroke="rgba(0,0,0,0)" stroke-miterlimit="10" stroke-width="1" font-size="24" font-family="Montserrat-Bold, Montserrat" font-weight="700"><tspan x="0" y="0">₹ 25,289 </tspan></text>
      <g id="Group_3857" data-name="Group 3857" transform="translate(187.411 288.418)">
        <rect id="Rectangle_39" data-name="Rectangle 39" width="120.568" height="34.948" rx="10" transform="translate(0 0)" fill="#d9233c"/>
        <g transform="matrix(1, 0, 0, 1, -588.21, -420.5)" filter="url(#Book_Now)">
          <text id="Book_Now-2" data-name="Book Now" transform="translate(613.21 442.49)" fill="#fff" stroke="rgba(0,0,0,0)" stroke-width="1" font-size="14" font-family="Montserrat-Regular, Montserrat"><tspan x="0" y="0">Book Now</tspan></text>
        </g>
      </g>
      <text id="_3_Night_and_4_Days" data-name="3 Night and 4 Days" transform="translate(27.807 228.417)" fill="#333" font-size="14" font-family="Montserrat-Regular, Montserrat"><tspan x="0" y="0">3 Night and 4 Days</tspan></text>
      <text id="City:_Singapore_2D_Malasiya_2D_" data-name="City: Singapore (2D), Malasiya (2D)" transform="translate(28.13 251.606)" fill="#959dad" font-size="12" font-family="Montserrat-Bold, Montserrat" font-weight="700"><tspan x="0" y="0">City:</tspan><tspan y="0" xml:space="preserve" font-family="Montserrat-Light, Montserrat" font-weight="300"> Singapore (2D), Malasiya (2D)</tspan></text>
      <line id="Line_333" data-name="Line 333" x2="279.161" transform="translate(28.772 269.918)" fill="none" stroke="#d8d8d8" stroke-width="1"/>
      <text id="Per_Person" data-name="Per Person" transform="translate(26.846 323.605)" fill="#959dad" font-size="11" font-family="Montserrat-Light, Montserrat" font-weight="300"><tspan x="0" y="0">Per Person</tspan></text>
      <g transform="matrix(1, 0, 0, 1, -400.79, -132.08)" filter="url(#Path_3473)">
        <path id="Path_3473-2" data-name="Path 3473" d="M5.654,0l128.5-.015c3.123,0,5.654,1.791,5.654,4v17.87c0,2.209-2.531,4-5.654,4L0,25.87V4C0,1.791,2.531,0,5.654,0Z" transform="translate(400.79 142.68)" fill="#f9a602"/>
      </g>
      <g transform="matrix(1, 0, 0, 1, -400.79, -132.08)" filter="url(#Best_for_Honeymoon)">
        <text id="Best_for_Honeymoon-2" data-name="Best for Honeymoon" transform="translate(418.09 158.67)" fill="#fff" font-size="10" font-family="Montserrat-Regular, Montserrat"><tspan x="0" y="0">Best for Honeymoon</tspan></text>
      </g>
      <path id="Path_3472" data-name="Path 3472" d="M-88.262,1702.3l-7.761-5.33h7.761Z" transform="translate(96.079 -1660.552)" fill="#b87b01"/>
    </g>
    <g id="image" transform="translate(650 5398)">
      <path id="Path_19419" data-name="Path 19419" d="M185.138,105.094a4.389,4.389,0,1,0-4.389-4.389A4.394,4.394,0,0,0,185.138,105.094Zm0-6.2a1.815,1.815,0,1,1-1.815,1.815A1.817,1.817,0,0,1,185.138,98.89Zm0,0" transform="translate(-165.241 -88.095)" fill="#666"/>
      <path id="Path_19420" data-name="Path 19420" d="M42.328.5H1.6A1.606,1.606,0,0,0,0,2.1v34.47a1.606,1.606,0,0,0,1.6,1.6H42.328a1.606,1.606,0,0,0,1.6-1.6V2.1a1.606,1.606,0,0,0-1.6-1.6Zm-.97,2.574v20.37l-8.1-8.1a1.356,1.356,0,0,0-1.914,0L19.9,26.8l-7.314-7.313a1.354,1.354,0,0,0-1.915,0l-8.1,8.1V3.074ZM2.575,35.6V31.22l9.052-9.052,7.313,7.313a1.353,1.353,0,0,0,1.915,0l11.45-11.45,9.053,9.053V35.6Zm0,0" transform="translate(-0.001 -0.5)" fill="#666"/>
    </g>
  </g>
</svg>
