<svg width="588" height="463" viewBox="0 0 588 463" fill="none" xmlns="http://www.w3.org/2000/svg">
<g clip-path="url(#clip0_793_2312)">
<path d="M157.246 460.335H45.8602V162.196H157.246V460.328V460.335ZM48.0371 458.158H155.069V164.38H48.0371V458.158Z" fill="white"/>
<path d="M587.272 461.769H411.876C411.476 461.769 411.148 461.441 411.148 461.041C411.148 460.641 411.476 460.313 411.876 460.313H587.272C587.672 460.313 588 460.641 588 461.041C588 461.441 587.672 461.769 587.272 461.769Z" fill="#161616"/>
<path d="M403.023 461.769H135.469C135.069 461.769 134.741 461.441 134.741 461.041C134.741 460.641 135.069 460.313 135.469 460.313H403.023C403.423 460.313 403.751 460.641 403.751 461.041C403.751 461.441 403.423 461.769 403.023 461.769Z" fill="#161616"/>
<path d="M121.84 461.769H2.19876C1.79833 461.769 1.4707 461.441 1.4707 461.041C1.4707 460.641 1.79833 460.313 2.19876 460.313H121.84C122.241 460.313 122.568 460.641 122.568 461.041C122.568 461.441 122.241 461.769 121.84 461.769Z" fill="#161616"/>
<path d="M275.948 102.182H183.375V214.813H275.948V102.182Z" fill="white"/>
<path d="M275.948 214.82H183.375V102.182H275.948V214.813V214.82ZM184.613 213.582H274.703V103.427H184.613V213.582Z" fill="#161616"/>
<path d="M275.948 214.82H183.375V102.182H275.948V214.813V214.82ZM184.613 213.582H274.703V103.427H184.613V213.582Z" fill="#161616"/>
<path d="M245.692 174.486C248.326 165.441 243.13 155.973 234.085 153.338C225.039 150.703 215.571 155.9 212.936 164.945C210.302 173.99 215.498 183.459 224.543 186.094C233.589 188.728 243.057 183.532 245.692 174.486Z" fill="#161616"/>
<path d="M229.185 152.658C231.172 152.644 233.073 152.964 234.849 153.583C234.412 162.56 227.037 169.739 217.929 169.797C215.941 169.811 214.041 169.491 212.265 168.872C212.702 159.895 220.077 152.717 229.185 152.658Z" fill="white"/>
<path d="M218.307 169.804C227.724 169.535 235.14 161.682 234.87 152.265C234.6 142.848 226.748 135.432 217.331 135.702C207.913 135.971 200.498 143.824 200.767 153.241C201.037 162.658 208.89 170.074 218.307 169.804Z" fill="#FB5457"/>
<path d="M241.591 169.629C251.012 169.629 258.649 161.992 258.649 152.571C258.649 143.15 251.012 135.513 241.591 135.513C232.17 135.513 224.532 143.15 224.532 152.571C224.532 161.992 232.17 169.629 241.591 169.629Z" fill="#5857F9"/>
<path d="M229.185 152.658C238.395 152.593 245.945 159.83 246.345 168.96C244.867 169.382 243.316 169.615 241.707 169.629C232.497 169.695 224.948 162.458 224.547 153.328C226.025 152.906 227.576 152.673 229.185 152.658Z" fill="white"/>
<g opacity="0.7">
<path d="M229.185 152.658C238.395 152.593 245.945 159.83 246.345 168.96C244.867 169.382 243.316 169.615 241.707 169.629C232.497 169.695 224.948 162.458 224.547 153.328C226.025 152.906 227.576 152.673 229.185 152.658Z" fill="#FB5457"/>
</g>
<g opacity="0.34">
<path d="M229.185 152.658C231.172 152.644 233.073 152.964 234.849 153.583C234.412 162.56 227.037 169.739 217.929 169.797C215.941 169.811 214.041 169.491 212.265 168.872C212.702 159.895 220.077 152.717 229.185 152.658Z" fill="#161616"/>
</g>
<path d="M229.622 140.42C232.832 143.499 234.842 147.824 234.878 152.615C234.915 157.405 232.963 161.759 229.796 164.882C226.586 161.803 224.576 157.478 224.54 152.687C224.503 147.89 226.455 143.543 229.622 140.42Z" fill="#FB5457"/>
<g opacity="0.48">
<path d="M229.622 140.42C232.832 143.499 234.842 147.824 234.878 152.615C234.915 157.405 232.963 161.759 229.796 164.882C226.586 161.803 224.576 157.478 224.54 152.687C224.503 147.89 226.455 143.543 229.622 140.42Z" fill="white"/>
</g>
<g opacity="0.19">
<path d="M229.185 152.658C231.172 152.644 233.073 152.964 234.849 153.583C234.631 158.002 232.738 161.985 229.789 164.89C226.724 161.948 224.744 157.871 224.547 153.328C226.025 152.906 227.576 152.673 229.185 152.658Z" fill="white"/>
</g>
<g opacity="0.19">
<path d="M229.185 152.658C231.172 152.644 233.073 152.964 234.849 153.583C234.631 158.002 232.738 161.985 229.789 164.89C226.724 161.948 224.744 157.871 224.547 153.328C226.025 152.906 227.576 152.673 229.185 152.658Z" fill="white"/>
</g>
<g opacity="0.19">
<path d="M229.185 152.658C231.172 152.644 233.073 152.964 234.849 153.583C234.631 158.002 232.738 161.985 229.789 164.89C226.724 161.948 224.744 157.871 224.547 153.328C226.025 152.906 227.576 152.673 229.185 152.658Z" fill="white"/>
</g>
<path d="M267.779 203.819H191.544V111.065H267.779V203.819ZM192.564 202.8H266.76V112.084H192.564V202.8Z" fill="#161616"/>
<path d="M267.779 203.819H191.544V111.065H267.779V203.819ZM192.564 202.8H266.76V112.084H192.564V202.8Z" fill="#161616"/>
<path d="M185.611 417.249V423.947H116.737C108.619 423.947 101.178 428.512 97.5086 435.756L83.8503 462.672H72.2159L81.5351 422.279L86.8936 399.033L181.555 398.982L185.618 417.241L185.611 417.249Z" fill="#161616"/>
<path d="M195.337 461.005H183.477C179.371 452.239 175.272 443.473 171.166 434.707C168.851 429.764 164.788 425.971 159.932 423.947C157.347 422.862 154.53 422.279 151.625 422.279H56.1768C48.0589 422.279 40.6182 426.844 36.9488 434.088L23.2905 461.005H11.6561L26.341 397.373L181.184 397.3L181.563 398.989L185.625 417.249L195.352 461.005H195.337Z" fill="white"/>
<path d="M196.379 461.835H182.953L182.728 461.354C178.621 452.589 174.522 443.823 170.416 435.057C168.225 430.376 164.388 426.699 159.612 424.711C157.071 423.648 154.384 423.11 151.625 423.11H56.1768C48.3211 423.11 41.2371 427.456 37.6914 434.46L23.8001 461.835H10.6005L25.6639 396.535H26.3265L181.839 396.463L196.379 461.842V461.835ZM184.009 460.168H194.296L180.5 398.13L26.989 398.203L12.69 460.168H22.7663L36.1916 433.71C40.0285 426.145 47.6804 421.442 56.1695 421.442H151.625C154.61 421.442 157.508 422.025 160.252 423.175C165.407 425.323 169.55 429.291 171.923 434.351C175.949 442.964 179.975 451.562 184.009 460.168Z" fill="#161616"/>
<path d="M34.7647 372.495L11.6489 265.675H110.701L136.62 372.582L34.7647 372.495Z" fill="#161616"/>
<path d="M37.4439 372.495L36.0897 373.98H21.2156C17.9757 359.659 14.7359 345.324 11.5033 331.003C7.66643 314.047 3.83686 297.083 0 280.126C4.03343 275.314 8.0523 270.494 12.0785 265.675L25.6713 322.907L37.4439 372.502V372.495Z" fill="#161616"/>
<path d="M195.439 325.623C193.947 333.304 192.462 340.97 190.969 348.651V348.666C189.418 356.638 187.868 364.603 186.324 372.575C186.273 372.815 186.23 373.056 186.186 373.303H111.509C111.458 373.063 111.4 372.823 111.349 372.575C107.891 356.929 104.447 341.276 100.981 325.623H195.447H195.439Z" fill="#161616"/>
<path d="M195.439 325.623C193.947 333.304 192.462 340.97 190.969 348.651V348.666C189.418 356.638 187.868 364.603 186.324 372.575C186.273 372.815 186.229 373.056 186.186 373.303H171.02C171.071 373.063 171.115 372.823 171.159 372.575C174.195 356.929 177.238 341.276 180.267 325.623H195.439Z" fill="#161616"/>
<path d="M20.6259 372.575L20.7933 373.303C22.8464 382.214 24.8995 391.126 26.9454 400.037H181.737C183.383 390.886 185.021 381.734 186.666 372.582H20.6259V372.575Z" fill="#161616"/>
<path d="M89.2452 325.63C86.1582 341.523 83.0858 357.417 79.9916 373.303H95.1643C98.2585 357.41 101.331 341.516 104.418 325.63H89.2452Z" fill="#161616"/>
<path d="M183.965 387.646V389.204H183.681L183.965 387.646Z" fill="white"/>
<path d="M104.418 325.623C101.389 341.494 98.3458 357.373 95.3098 373.245C95.2588 373.485 95.2152 373.733 95.1715 373.98H20.7933L20.6258 373.245C17.5898 359.164 14.5393 345.076 11.496 330.996C10.8699 328.113 10.2437 325.222 9.62488 322.346C14.9688 322.528 20.32 322.71 25.664 322.907C51.9104 323.817 78.1641 324.72 104.411 325.63L104.418 325.623Z" fill="#161616"/>
<path d="M79.9988 374.395C79.7513 374.395 79.5256 374.286 79.3654 374.104C79.2052 373.915 79.1324 373.66 79.1834 373.412L88.153 326.103L26.3192 326.467C25.9334 326.467 25.5985 326.205 25.5111 325.834L10.9063 265.507C10.7971 265.063 11.0737 264.612 11.5179 264.502C11.962 264.393 12.4134 264.67 12.5226 265.114L26.9745 324.8L89.1578 324.436C89.3907 324.436 89.6456 324.545 89.8057 324.734C89.9659 324.924 90.0314 325.179 89.9877 325.426L81.0181 372.713L95.3899 372.327C95.8486 372.327 96.2345 372.677 96.2418 373.136C96.2563 373.594 95.8923 373.98 95.4336 373.987L80.0279 374.402H80.0061L79.9988 374.395Z" fill="white"/>
<path d="M251.966 334.84H147.868C148.698 338.444 149.535 342.062 150.365 345.666C166.885 345.528 183.397 345.382 199.917 345.244C216.436 345.382 232.949 345.528 249.468 345.666C250.298 342.062 251.136 338.444 251.966 334.84Z" fill="#161616"/>
<path d="M152.193 461.966C152.127 461.966 152.054 461.966 151.982 461.944C151.465 461.827 151.137 461.318 151.254 460.801L176.91 344.625C177.027 344.108 177.544 343.78 178.053 343.897C178.57 344.013 178.898 344.523 178.781 345.04L153.125 461.216C153.023 461.66 152.63 461.966 152.193 461.966Z" fill="#161616"/>
<path d="M248.638 461.966C248.202 461.966 247.801 461.66 247.706 461.216L222.05 345.04C221.933 344.523 222.261 344.013 222.778 343.897C223.295 343.78 223.804 344.108 223.921 344.625L249.578 460.801C249.694 461.318 249.366 461.827 248.85 461.944C248.777 461.958 248.711 461.966 248.638 461.966Z" fill="#161616"/>
<path d="M232.199 392.742H168.632C168.123 392.742 167.708 392.327 167.708 391.817C167.708 391.308 168.123 390.893 168.632 390.893H232.199C232.709 390.893 233.124 391.308 233.124 391.817C233.124 392.327 232.709 392.742 232.199 392.742Z" fill="#161616"/>
<path d="M181.963 461.929C181.963 461.929 181.934 461.929 181.919 461.929C181.41 461.9 181.017 461.471 181.046 460.961L186.928 344.785C186.958 344.275 187.394 343.889 187.897 343.911C188.406 343.94 188.8 344.37 188.77 344.88L182.888 461.056C182.866 461.551 182.451 461.936 181.963 461.936V461.929Z" fill="#161616"/>
<path d="M219.487 461.929C218.999 461.929 218.592 461.543 218.562 461.048L212.68 344.872C212.651 344.363 213.044 343.926 213.553 343.904C214.063 343.889 214.5 344.268 214.522 344.778L220.404 460.954C220.434 461.463 220.04 461.9 219.531 461.922C219.516 461.922 219.502 461.922 219.487 461.922V461.929Z" fill="#161616"/>
<path d="M249.468 343.016H149.564C149.106 343.016 148.734 342.645 148.734 342.186C148.734 341.727 149.106 341.356 149.564 341.356H249.468C249.927 341.356 250.298 341.727 250.298 342.186C250.298 342.645 249.927 343.016 249.468 343.016Z" fill="white"/>
<path d="M111.225 309.074C110.73 309.074 110.337 308.673 110.337 308.186C110.337 304.545 115.113 300.461 115.652 300.01C116.03 299.697 116.591 299.747 116.904 300.126C117.217 300.505 117.166 301.065 116.787 301.378C115.484 302.463 112.113 305.805 112.113 308.193C112.113 308.681 111.713 309.081 111.225 309.081V309.074Z" fill="#161616"/>
<path d="M155.163 328.782L157.02 326.635H164.635L165.698 328.892L155.163 328.782Z" fill="#161616"/>
<path d="M164.497 328.797L166.346 326.649H173.969L175.032 328.913L164.497 328.797Z" fill="#161616"/>
<path d="M174.253 328.797L176.102 326.649H183.725L184.788 328.913L174.253 328.797Z" fill="#161616"/>
<path d="M183.725 328.797L185.574 326.649H193.197L194.26 328.913L183.725 328.797Z" fill="#161616"/>
<path d="M269.628 290.596L253.589 326.416C252.563 328.702 250.291 330.18 247.787 330.18H185.283C180.638 330.18 177.558 325.36 179.509 321.145L196.255 285.026C197.303 282.769 199.567 281.328 202.057 281.342L263.847 281.641C268.442 281.662 271.499 286.402 269.621 290.603L269.628 290.596Z" fill="white"/>
<path d="M182.844 321.145L199.589 285.026C200.601 282.835 202.771 281.43 205.174 281.357L202.065 281.342C199.575 281.328 197.311 282.769 196.262 285.026L179.517 321.145C177.566 325.36 180.638 330.18 185.29 330.18H188.625C183.98 330.18 180.9 325.36 182.851 321.145H182.844Z" fill="#161616"/>
<path d="M248.522 327.479H154.85C152.884 327.479 151.29 329.073 151.29 331.039V331.352C151.29 333.319 152.884 334.912 154.85 334.912H248.522C250.488 334.912 252.082 333.319 252.082 331.352V331.039C252.082 329.073 250.488 327.479 248.522 327.479Z" fill="white"/>
<path d="M252.803 329.03C252.686 329.03 252.57 329.008 252.461 328.957C252.024 328.768 251.827 328.258 252.024 327.829L268.747 289.817C269.41 288.31 269.395 286.664 268.718 285.303C268.478 284.837 268.209 284.436 267.888 284.08C266.92 282.98 265.449 282.354 263.862 282.354H234.252C233.779 282.354 233.393 281.968 233.393 281.495C233.393 281.022 233.779 280.636 234.252 280.636H263.862C265.944 280.636 267.874 281.473 269.17 282.944C269.585 283.41 269.934 283.927 270.218 284.48C271.157 286.351 271.179 288.528 270.313 290.508L253.582 328.528C253.444 328.848 253.123 329.037 252.796 329.037L252.803 329.03Z" fill="#161616"/>
<path d="M252.803 328.593H180.412C180.034 328.593 179.728 328.287 179.728 327.909C179.728 327.53 180.034 327.224 180.412 327.224H252.803C253.181 327.224 253.487 327.53 253.487 327.909C253.487 328.287 253.181 328.593 252.803 328.593Z" fill="#161616"/>
<path d="M450.718 140.42H362.201V247.954H450.718V140.42Z" fill="white"/>
<path d="M451.184 248.682H362.193V140.42H451.184V248.682ZM363.431 247.444H449.939V141.657H363.431V247.444Z" fill="#161616"/>
<path d="M451.184 248.682H362.193V140.42H451.184V248.682ZM363.431 247.444H449.939V141.657H363.431V247.444Z" fill="#161616"/>
<path d="M397.359 202.792L393.755 192.134H383.984L380.184 202.792H383.882V203.732H376.332V202.792H378.655L391.236 168.894H395.284L407.719 202.792H409.99V203.732H393.857V202.792H397.359ZM389.066 178.126L384.428 191.056H393.361L389.066 178.126Z" fill="#5857F9"/>
<path d="M422.622 192.134H424.056V188.333C424.056 185.21 423.882 183.113 423.539 182.043C423.197 180.973 422.528 180.441 421.545 180.441C420.955 180.441 420.416 180.601 419.943 180.907C419.462 181.22 419.229 181.65 419.229 182.188C419.229 182.727 419.331 183.28 419.528 183.841H420.758C421.02 184.533 421.151 185.363 421.151 186.331C421.151 187.299 420.736 188.144 419.921 188.85C419.098 189.556 418.065 189.913 416.812 189.913C413.98 189.913 412.568 188.552 412.568 185.821C412.568 181.773 416.004 179.749 422.877 179.749C426.794 179.749 429.495 180.412 430.995 181.744C432.495 183.077 433.237 185.516 433.237 189.069V199.087C433.237 200.797 433.71 201.649 434.664 201.649C435.785 201.649 436.441 199.953 436.637 196.567L437.38 196.618C437.249 199.516 436.703 201.504 435.749 202.589C434.795 203.673 433.23 204.219 431.06 204.219C427.114 204.219 424.843 203.004 424.253 200.565C423.823 201.817 423.183 202.734 422.331 203.331C421.472 203.921 420.227 204.219 418.581 204.219C413.711 204.219 411.279 202.232 411.279 198.249C411.279 195.912 412.211 194.311 414.067 193.437C415.924 192.563 418.778 192.126 422.629 192.126L422.622 192.134ZM420.919 201.511C421.101 202.006 421.443 202.254 421.952 202.254C422.462 202.254 422.943 201.831 423.387 200.994C423.831 200.157 424.056 198.999 424.056 197.514V192.927H423.714C421.676 192.927 420.656 194.427 420.656 197.419V198.206C420.656 199.917 420.744 201.016 420.926 201.511H420.919Z" fill="#5857F9"/>
<path d="M437.868 216.109H375.517V161.57H437.868V216.109ZM376.536 215.082H436.841V162.596H376.536V215.082Z" fill="#161616"/>
<path d="M377.832 159.08H373.624V163.288H377.832V159.08Z" fill="#161616"/>
<path d="M439.76 159.08H435.552V163.288H439.76V159.08Z" fill="#161616"/>
<path d="M439.76 213.793H435.552V218.001H439.76V213.793Z" fill="#161616"/>
<path d="M377.832 213.793H373.624V218.001H377.832V213.793Z" fill="#161616"/>
<path d="M466.837 461.857C466.72 461.857 466.604 461.835 466.487 461.784C466.058 461.587 465.861 461.085 466.058 460.655L495.966 394.191C499.061 387.318 505.715 382.884 512.923 382.884H523.232C530.571 382.884 537.276 387.435 540.32 394.482L568.685 460.226C568.874 460.655 568.67 461.165 568.241 461.347C567.804 461.536 567.301 461.332 567.119 460.903L538.754 395.159C535.988 388.738 529.894 384.595 523.239 384.595H512.93C506.392 384.595 500.349 388.636 497.532 394.897L467.623 461.361C467.478 461.682 467.172 461.864 466.844 461.864L466.837 461.857Z" fill="#161616"/>
<path d="M542.154 401.712H494.11C493.644 401.712 493.265 401.333 493.265 400.867C493.265 400.401 493.644 400.023 494.11 400.023H542.154C542.62 400.023 542.999 400.401 542.999 400.867C542.999 401.333 542.62 401.712 542.154 401.712Z" fill="#161616"/>
<path d="M444.34 461.857C444.223 461.857 444.107 461.835 443.99 461.784C443.561 461.587 443.364 461.085 443.561 460.655L473.469 394.191C476.564 387.318 483.218 382.884 490.426 382.884H500.735C508.074 382.884 514.779 387.435 517.823 394.482L546.188 460.226C546.377 460.655 546.173 461.165 545.744 461.347C545.307 461.536 544.804 461.332 544.622 460.903L516.257 395.159C513.491 388.738 507.397 384.595 500.742 384.595H490.433C483.895 384.595 477.852 388.636 475.035 394.897L445.126 461.361C444.981 461.682 444.675 461.864 444.347 461.864L444.34 461.857Z" fill="#161616"/>
<path d="M519.657 401.712H471.613C471.147 401.712 470.768 401.333 470.768 400.867C470.768 400.401 471.147 400.023 471.613 400.023H519.657C520.123 400.023 520.502 400.401 520.502 400.867C520.502 401.333 520.123 401.712 519.657 401.712Z" fill="#161616"/>
<path d="M529.319 374.373C531.721 374.308 536.221 373.725 540.596 370.58C545.511 367.049 547.36 362.36 547.935 360.671C550.25 351.163 552.726 341.676 555.347 332.248C555.485 331.768 555.609 331.294 555.747 330.814C555.776 330.697 555.813 330.573 555.842 330.457C555.915 330.202 555.988 329.947 556.06 329.693C557.509 324.509 559.002 319.354 560.531 314.229C562.693 306.999 564.964 299.726 567.302 292.503C567.797 290.982 567.534 289.322 566.595 288.026C565.132 286.009 563.399 284.284 561.441 282.937C558.674 281.029 554.859 282.282 553.818 285.478C551.161 293.596 548.59 301.801 546.159 309.94C544.2 316.486 542.315 323.067 540.494 329.693C540.422 329.947 540.349 330.202 540.276 330.457C540.247 330.573 540.211 330.697 540.181 330.814C536.228 345.244 532.595 359.805 529.319 374.366V374.373Z" fill="#161616"/>
<path d="M467.863 343.242V360.533C467.863 365.913 471.001 370.9 475.981 372.939C478.166 373.835 480.546 374.33 483.029 374.33H526.647C527.149 374.359 527.637 374.381 528.11 374.388C528.372 374.395 528.722 374.402 529.151 374.388H529.326C531.729 374.315 536.228 373.733 540.604 370.587C545.452 367.1 547.316 362.491 547.921 360.744C547.921 360.73 547.928 360.708 547.935 360.693C550.381 350.697 552.988 340.73 555.747 330.828C555.849 330.457 555.958 330.078 556.06 329.707H481.194C481.136 329.707 481.085 329.707 481.027 329.707C473.695 329.78 467.856 335.91 467.856 343.249L467.863 343.242Z" fill="#161616"/>
<path d="M405.105 310.894L403.744 308.688H398.123L397.344 311.01L405.105 310.894Z" fill="#161616"/>
<path d="M398.232 310.909L396.863 308.703H391.25L390.464 311.025L398.232 310.909Z" fill="#161616"/>
<path d="M391.039 310.909L389.678 308.703H384.064L383.278 311.025L391.039 310.909Z" fill="#161616"/>
<path d="M384.057 310.909L382.696 308.703H377.082L376.296 311.025L384.057 310.909Z" fill="#161616"/>
<path d="M322.427 271.637L332.591 308.462C333.239 310.814 334.68 312.328 336.267 312.328H375.866C378.808 312.328 380.759 307.37 379.521 303.038L368.913 265.908C368.251 263.585 366.816 262.107 365.237 262.122L326.082 262.427C323.17 262.449 321.233 267.327 322.42 271.637H322.427Z" fill="#FB5457"/>
<path d="M337.352 317.199H404.311C406.33 317.199 407.966 315.563 407.966 313.544V313.209C407.966 311.191 406.33 309.554 404.311 309.554H337.352C335.334 309.554 333.697 311.191 333.697 313.209V313.544C333.697 315.563 335.334 317.199 337.352 317.199Z" fill="#FB5457"/>
<path d="M333.282 310.909C332.962 310.909 332.671 310.698 332.583 310.37C332.481 310.006 322.696 273.603 321.386 269.715C320.447 266.941 321.517 264.823 322.23 263.803C323.104 262.573 324.334 261.728 325.295 261.714C326.722 261.692 355.444 261.394 355.736 261.394H355.743C356.143 261.394 356.464 261.714 356.471 262.114C356.471 262.515 356.151 262.842 355.75 262.85C355.459 262.85 326.737 263.148 325.317 263.17C324.968 263.17 324.123 263.643 323.424 264.641C322.864 265.434 322.041 267.08 322.769 269.242C324.094 273.174 333.588 308.484 333.996 309.984C334.098 310.37 333.872 310.77 333.479 310.88C333.413 310.894 333.355 310.901 333.29 310.901L333.282 310.909Z" fill="#161616"/>
<path d="M457.015 461.078H451.104L436.513 393.106L429.313 359.565C426.728 347.544 420.802 339.74 414.235 339.74H354.738C353.915 339.74 353.107 339.856 352.314 340.096C346.744 341.756 341.917 349.044 339.66 359.565L317.869 461.078H311.958L321.437 402.797L335.088 318.801H433.892L457.023 461.078H457.015Z" fill="#161616"/>
<path d="M457.015 461.078H451.104L436.513 393.106L429.313 359.565C426.728 347.544 420.802 339.74 414.235 339.74H354.738C353.915 339.74 353.107 339.856 352.314 340.096C346.744 341.756 341.917 349.044 339.66 359.565L317.869 461.078H311.958L321.437 402.797L335.088 318.801H433.892L457.023 461.078H457.015Z" fill="#161616"/>
<path d="M449.895 461.077H443.859L422.578 360.264C419.994 348.032 414.067 340.096 407.5 340.096H348.004C341.444 340.096 335.51 348.025 332.926 360.264L323.949 402.789L311.644 461.07H305.609L328.353 318.793H427.158L439.032 393.099L449.895 461.07V461.077Z" fill="white"/>
<path d="M449.895 461.806H443.859C443.517 461.806 443.219 461.565 443.146 461.23L421.865 360.416C419.353 348.52 413.718 340.824 407.5 340.824H348.004C341.786 340.824 336.151 348.513 333.639 360.409L312.358 461.223C312.285 461.558 311.987 461.798 311.644 461.798H305.609C305.398 461.798 305.194 461.704 305.056 461.543C304.917 461.383 304.859 461.165 304.888 460.954L327.633 318.677C327.691 318.328 327.997 318.065 328.353 318.065H427.158C427.515 318.065 427.82 318.328 427.879 318.677L450.623 460.954C450.659 461.165 450.594 461.376 450.456 461.543C450.317 461.704 450.113 461.798 449.902 461.798L449.895 461.806ZM444.449 460.349H449.036L426.532 319.529H328.972L306.461 460.349H311.047L332.205 360.118C334.862 347.515 341.065 339.376 347.996 339.376H407.493C414.424 339.376 420.62 347.515 423.285 360.118L444.442 460.349H444.449Z" fill="#161616"/>
<path d="M452.385 317.206H308.179V327.596H452.385V317.206Z" fill="white"/>
<path d="M308.907 326.904H452.385V317.891H308.907V326.904Z" fill="white"/>
<path d="M452.014 327.632H308.536C308.135 327.632 307.807 327.304 307.807 326.904V317.891C307.807 317.49 308.135 317.163 308.536 317.163H452.014C452.414 317.163 452.742 317.49 452.742 317.891V326.904C452.742 327.304 452.414 327.632 452.014 327.632ZM309.264 326.176H451.286V318.619H309.264V326.176Z" fill="#161616"/>
<path d="M346.154 392.065C345.266 409.32 342.813 425.119 340.963 435.144C340.869 435.639 340.774 436.12 340.687 436.586C340.716 436.113 340.745 435.632 340.781 435.144H337.876C336.915 420.78 335.423 394.628 335.423 369.969C335.423 333.471 321.087 289.154 338.684 330.865C346.023 348.258 347.239 371.214 346.162 392.065H346.154Z" fill="#5857F9"/>
<path d="M378.436 402.556C375.175 403.86 367.355 397.343 359.536 380.394C359.536 380.394 348.892 413.39 343.315 435.144H340.963C340.869 435.639 340.774 436.12 340.687 436.586C340.716 436.112 340.745 435.632 340.781 435.144C341.575 423.022 343.14 406.386 346.161 392.065C348.418 381.392 351.476 372 355.634 366.714C369.969 348.462 381.705 401.26 378.444 402.564L378.436 402.556Z" fill="#5857F9"/>
<path d="M315.219 369.969C324.495 380.125 332.569 414.213 336.821 435.144H333.166C327.727 422.461 322.944 413.193 319.136 406.466C317.906 404.289 313.967 397.431 311.317 387.566C308.506 377.133 307.494 364.654 309.912 363.933C311.441 363.474 313.552 368.134 315.226 369.969H315.219Z" fill="#5857F9"/>
<path d="M332.168 429.851C331.979 429.851 331.797 429.764 331.688 429.597C329.853 426.844 329.853 425.891 329.853 425.126C329.853 424.82 329.853 424.638 329.7 424.325C329.504 423.925 329.256 423.022 328.812 421.319C327.822 417.576 326.176 411.315 323.883 408.112C322.813 406.612 322.405 405.44 322.645 404.53C322.798 403.962 323.155 403.619 323.504 403.394C322.092 402.542 319.799 400.765 317.433 398.399C315.773 396.739 316.544 395.218 317.156 393.995C317.738 392.837 318.059 392.08 317.374 391.17C316.748 390.332 316.122 389.706 315.569 389.153C314.447 388.032 313.479 387.063 314.032 385.425C314.346 384.479 311.848 382.178 309.358 380.591C309.089 380.416 309.009 380.06 309.184 379.797C309.351 379.528 309.708 379.448 309.977 379.623C310.967 380.256 315.882 383.525 315.125 385.797C314.819 386.714 315.212 387.165 316.384 388.345C316.937 388.898 317.622 389.583 318.299 390.485C319.449 392.014 318.75 393.405 318.19 394.519C317.542 395.8 317.229 396.572 318.248 397.591C320.774 400.118 323.359 402.069 324.618 402.695C324.771 402.775 325.186 402.979 325.179 403.423C325.179 403.86 324.8 404.034 324.524 404.158C324.145 404.333 323.854 404.493 323.767 404.821C323.687 405.127 323.716 405.876 324.83 407.434C327.239 410.813 328.929 417.198 329.933 421.02C330.283 422.345 330.588 423.495 330.741 423.808C331.018 424.362 331.018 424.769 331.018 425.126C331.018 425.738 331.018 426.495 332.656 428.956C332.831 429.218 332.758 429.582 332.496 429.757C332.394 429.822 332.285 429.851 332.176 429.851H332.168Z" fill="#161616"/>
<path d="M338.684 424.638C338.59 424.638 338.495 424.617 338.4 424.566C338.124 424.413 338.022 424.056 338.182 423.779C339.995 420.539 340.847 417.358 340.716 414.307C340.643 412.633 340.301 411.417 339.966 410.245C339.492 408.577 339.048 406.998 339.412 404.42C339.689 402.462 340.337 400.7 341.4 397.788C341.902 396.404 342.31 395.451 342.601 394.759C343.125 393.521 343.322 393.055 343.315 392.123C343.315 390.645 342.805 389.837 342.157 388.818C341.655 388.017 341.08 387.107 340.723 385.753C339.725 381.952 339.791 380.453 342.74 375.531C344.239 373.026 342.696 368.039 341.451 364.035C341.189 363.198 340.941 362.397 340.73 361.647C340.235 359.921 340.177 359.106 340.504 358.553C340.81 358.021 341.378 357.883 341.975 357.745C342.689 357.57 343.664 357.337 344.822 356.369C345.208 356.041 345.397 355.728 345.397 355.4C345.397 354.425 343.817 353.1 342.295 351.825C340.672 350.464 338.99 349.059 338.167 347.413C337.243 345.564 337.519 344.064 337.76 342.739C338.073 340.999 338.349 339.499 336.296 337.097C336.092 336.857 336.114 336.493 336.362 336.281C336.602 336.07 336.966 336.099 337.177 336.347C339.587 339.165 339.223 341.174 338.903 342.943C338.677 344.203 338.459 345.389 339.209 346.889C339.922 348.316 341.509 349.649 343.045 350.93C344.931 352.51 346.562 353.871 346.562 355.386C346.562 356.063 346.227 356.689 345.572 357.242C344.21 358.385 343.038 358.669 342.259 358.858C341.91 358.946 341.575 359.026 341.516 359.128C341.429 359.281 341.415 359.783 341.859 361.327C342.07 362.069 342.317 362.87 342.572 363.693C343.955 368.134 345.521 373.172 343.752 376.121C340.992 380.722 340.927 381.916 341.859 385.454C342.172 386.641 342.667 387.435 343.155 388.199C343.803 389.233 344.48 390.303 344.487 392.116C344.487 393.288 344.218 393.929 343.679 395.203C343.373 395.924 342.987 396.827 342.499 398.181C341.458 401.028 340.832 402.746 340.57 404.58C340.235 406.91 340.636 408.308 341.087 409.924C341.436 411.162 341.8 412.443 341.873 414.249C342.019 417.511 341.116 420.903 339.194 424.333C339.092 424.522 338.895 424.624 338.692 424.624L338.684 424.638Z" fill="#161616"/>
<path d="M361.458 384.923C361.283 384.923 361.116 384.843 360.999 384.697C360.81 384.45 356.354 378.589 356.354 373.885C356.354 373.565 356.609 373.31 356.929 373.31C357.25 373.31 357.505 373.565 357.505 373.885C357.505 378.196 361.866 383.94 361.909 383.998C362.106 384.253 362.055 384.61 361.8 384.806C361.698 384.886 361.574 384.923 361.451 384.923H361.458Z" fill="#161616"/>
<path d="M344.116 413.062C343.919 413.062 343.73 412.968 343.621 412.786C343.453 412.516 343.541 412.159 343.81 411.992C344.684 411.453 345.921 410.398 345.921 409.728V399.55L346.293 399.411C348.207 398.69 351.404 397.089 351.811 395.858C352.022 395.232 352.088 394.045 352.161 392.669C352.306 389.997 352.488 386.67 353.799 384.056C353.945 383.773 354.287 383.656 354.571 383.802C354.855 383.947 354.971 384.289 354.825 384.573C353.624 386.976 353.449 390.172 353.311 392.735C353.231 394.257 353.158 395.451 352.903 396.23C352.27 398.122 348.375 399.826 347.064 400.35V409.735C347.064 411.286 344.851 412.713 344.4 412.989C344.305 413.048 344.203 413.077 344.101 413.077L344.116 413.062Z" fill="#161616"/>
<path d="M342.084 431.679H328.586C326.861 431.679 325.579 433.288 325.965 434.97L331.324 458.42C331.6 459.643 332.692 460.51 333.945 460.51H345.994C347.246 460.51 348.338 459.643 348.615 458.42L353.974 434.97C354.359 433.288 353.078 431.679 351.353 431.679H342.077H342.084Z" fill="white"/>
<path d="M346.001 461.296H333.952C332.321 461.296 330.923 460.182 330.559 458.595L325.201 435.144C324.961 434.103 325.208 433.033 325.871 432.196C326.533 431.366 327.523 430.885 328.594 430.885H351.367C352.43 430.885 353.428 431.366 354.09 432.196C354.753 433.026 355 434.103 354.76 435.144L349.401 458.595C349.037 460.189 347.64 461.296 346.009 461.296H346.001ZM328.586 432.465C328.004 432.465 327.465 432.727 327.101 433.178C326.737 433.63 326.606 434.22 326.737 434.787L332.096 458.238C332.292 459.112 333.057 459.716 333.945 459.716H345.994C346.89 459.716 347.647 459.112 347.843 458.238L353.202 434.787C353.333 434.22 353.202 433.637 352.838 433.178C352.474 432.727 351.935 432.465 351.353 432.465H328.579H328.586Z" fill="#161616"/>
<path d="M334.447 453.797C334.156 453.797 333.879 453.637 333.741 453.36C332.139 450.157 329.067 437.154 328.936 436.6C328.834 436.178 329.096 435.748 329.526 435.654C329.948 435.552 330.377 435.814 330.472 436.244C330.501 436.375 333.624 449.618 335.146 452.654C335.343 453.047 335.183 453.52 334.797 453.717C334.68 453.775 334.564 453.797 334.447 453.797Z" fill="#161616"/>
</g>
<defs>
<clipPath id="clip0_793_2312">
<rect width="588" height="394.672" fill="white" transform="translate(0 68)"/>
</clipPath>
</defs>
</svg>
